<mxfile host="" modified="2020-06-02T11:19:28.191Z" agent="5.0 (Windows NT 10.0; Win64; x64) AppleWebKit/537.36 (KHTML, like Gecko) Code/1.45.1 Chrome/78.0.3904.130 Electron/7.2.4 Safari/537.36" etag="IY_ZSWvteRWwyNueJBmD" version="13.1.3">
    <diagram id="6hGFLwfOUW9BJ-s0fimq" name="Page-1">
        <mxGraphModel dx="1723" dy="1162" grid="1" gridSize="10" guides="1" tooltips="1" connect="1" arrows="1" fold="1" page="1" pageScale="1" pageWidth="827" pageHeight="1169" math="0" shadow="0">
            <root>
                <mxCell id="0"/>
                <mxCell id="1" parent="0"/>
                <mxCell id="2" value="" style="strokeWidth=1;shadow=0;dashed=0;align=center;html=1;shape=mxgraph.mockup.containers.browserWindow;rSize=0;strokeColor=#000000;strokeColor2=#008cff;strokeColor3=#c4c4c4;mainText=,;recursiveResize=0;overflow:hidden;overflow=visible;noLabel=0;backgroundOutline=0;collapsible=0;container=0;autosize=0;fixDash=0;snapToPoint=0;portConstraintRotation=0;portConstraint=none;connectable=1;allowArrows=1;moveCells=0;deletable=0;" vertex="1" parent="1">
                    <mxGeometry x="60" y="80" width="370" height="440" as="geometry">
                        <mxRectangle x="470" y="145" width="50" height="40" as="alternateBounds"/>
                    </mxGeometry>
                </mxCell>
                <mxCell id="3" value="" style="rounded=0;whiteSpace=wrap;html=1;shadow=0;glass=0;comic=0;strokeColor=#33001A;fontSize=15;" vertex="1" parent="2">
                    <mxGeometry x="20" y="281.25" width="310" height="130" as="geometry"/>
                </mxCell>
                <mxCell id="4" value="Address Detail" style="strokeWidth=1;shadow=0;dashed=0;align=center;html=1;shape=mxgraph.mockup.containers.anchor;fontSize=17;fontColor=#666666;align=left;" vertex="1" parent="2">
                    <mxGeometry x="60" y="12" width="110" height="26" as="geometry"/>
                </mxCell>
                <mxCell id="5" value="https://explorer/btc/address/df" style="strokeWidth=1;shadow=0;dashed=0;align=center;html=1;shape=mxgraph.mockup.containers.anchor;rSize=0;fontSize=17;fontColor=#666666;align=left;" vertex="1" parent="2">
                    <mxGeometry x="130" y="60" width="250" height="26" as="geometry"/>
                </mxCell>
                <mxCell id="6" value="" style="rounded=0;whiteSpace=wrap;html=1;align=left;" vertex="1" parent="2">
                    <mxGeometry y="110" width="370" height="40" as="geometry"/>
                </mxCell>
                <mxCell id="7" value="&lt;b&gt;&lt;font style=&quot;font-size: 15px&quot;&gt;Explorer&lt;/font&gt;&lt;/b&gt;" style="text;html=1;strokeColor=none;fillColor=none;align=center;verticalAlign=middle;whiteSpace=wrap;rounded=0;" vertex="1" parent="2">
                    <mxGeometry y="110" width="90" height="40" as="geometry"/>
                </mxCell>
                <mxCell id="8" value="Search" style="strokeWidth=1;shadow=0;dashed=0;align=center;html=1;shape=mxgraph.mockup.forms.searchBox;strokeColor=#999999;mainText=;strokeColor2=#008cff;fontColor=#666666;fontSize=17;align=left;spacingLeft=3;" vertex="1" parent="2">
                    <mxGeometry x="210" y="115" width="150" height="30" as="geometry"/>
                </mxCell>
                <mxCell id="9" value="" style="verticalLabelPosition=bottom;shadow=0;dashed=0;align=center;html=1;verticalAlign=top;strokeWidth=1;shape=mxgraph.mockup.navigation.scrollBar;strokeColor=#999999;barPos=96.491;fillColor2=#99ddff;strokeColor2=none;direction=north;rounded=1;glass=0;comic=0;" vertex="1" parent="2">
                    <mxGeometry x="350" y="150" width="20" height="290" as="geometry"/>
                </mxCell>
                <mxCell id="10" value="" style="rounded=0;whiteSpace=wrap;html=1;" vertex="1" parent="2">
                    <mxGeometry x="20" y="160" width="310" height="80" as="geometry"/>
                </mxCell>
                <mxCell id="11" value="&lt;h1 style=&quot;line-height: 50%&quot;&gt;&lt;font style=&quot;font-size: 19px&quot;&gt;Address #1Q9obAQ8HGGrn&lt;/font&gt;&lt;/h1&gt;&lt;p&gt;Transactions: 5&lt;br&gt;Balance: 0,35 BTC&lt;br&gt;&lt;/p&gt;" style="text;html=1;strokeColor=none;fillColor=none;spacing=5;spacingTop=-20;whiteSpace=wrap;overflow=hidden;rounded=0;" vertex="1" parent="2">
                    <mxGeometry x="30" y="163.75" width="290" height="87.5" as="geometry"/>
                </mxCell>
                <mxCell id="12" value="Address transactions:" style="text;html=1;strokeColor=none;fillColor=none;align=left;verticalAlign=middle;whiteSpace=wrap;rounded=0;shadow=0;glass=0;comic=0;fontStyle=1;fontSize=15;" vertex="1" parent="2">
                    <mxGeometry x="20" y="251.25" width="170" height="30" as="geometry"/>
                </mxCell>
                <mxCell id="13" value="&lt;div class=&quot;v-list-item__title headline mb-1&quot; style=&quot;box-sizing: inherit ; padding: 0px ; margin: 0px 0px 2px ; line-height: 1.2 ; overflow: hidden ; text-overflow: ellipsis ; letter-spacing: normal ; font-family: &amp;#34;roboto&amp;#34; , sans-serif ; font-style: normal ; text-indent: 0px ; text-transform: none ; word-spacing: 0px&quot;&gt;&lt;font style=&quot;font-size: 17px&quot;&gt;&lt;b&gt;Value 100 Btc&lt;/b&gt;&lt;/font&gt;&lt;/div&gt;&lt;div style=&quot;box-sizing: inherit ; padding: 0px ; margin: 0px 0px 2px ; line-height: 1.1 ; font-family: &amp;#34;roboto&amp;#34; , sans-serif ; font-size: 16px ; font-style: normal ; font-weight: 400 ; letter-spacing: normal ; text-indent: 0px ; text-transform: none ; word-spacing: 0px&quot;&gt;&lt;br&gt;&lt;/div&gt;" style="text;whiteSpace=wrap;html=1;fontSize=15;" vertex="1" parent="2">
                    <mxGeometry x="20" y="281.25" width="310" height="40" as="geometry"/>
                </mxCell>
                <mxCell id="14" value="" style="shape=internalStorage;whiteSpace=wrap;html=1;backgroundOutline=1;rounded=0;shadow=0;glass=0;comic=0;strokeColor=#33001A;fillColor=none;fontSize=15;dx=156;dy=26;" vertex="1" parent="2">
                    <mxGeometry x="20" y="311.25" width="310" height="100" as="geometry"/>
                </mxCell>
                <mxCell id="15" value="&lt;font face=&quot;roboto, sans-serif&quot; size=&quot;1&quot;&gt;&lt;span style=&quot;box-sizing: inherit ; cursor: pointer ; font-size: 12px&quot;&gt;1Q9obAQ8HGGrn&amp;nbsp; &lt;b&gt;50BTC&lt;/b&gt;&lt;/span&gt;&lt;/font&gt;" style="text;whiteSpace=wrap;html=1;fontSize=15;" vertex="1" parent="2">
                    <mxGeometry x="180" y="341.25" width="180" height="30" as="geometry"/>
                </mxCell>
                <mxCell id="16" value="&lt;font face=&quot;roboto, sans-serif&quot; size=&quot;1&quot;&gt;&lt;span style=&quot;box-sizing: inherit ; cursor: pointer ; font-size: 12px&quot;&gt;1Q9obAQ8HGGrn&amp;nbsp; &lt;b&gt;50BTC&lt;/b&gt;&lt;/span&gt;&lt;/font&gt;" style="text;whiteSpace=wrap;html=1;fontSize=15;" vertex="1" parent="2">
                    <mxGeometry x="180" y="371.25" width="180" height="30" as="geometry"/>
                </mxCell>
                <mxCell id="17" value="&lt;span style=&quot;font-family: &amp;#34;roboto&amp;#34; , sans-serif ; font-size: 12px&quot;&gt;&lt;b&gt;50BTC&lt;/b&gt;&amp;nbsp;&amp;nbsp;&lt;/span&gt;&lt;font face=&quot;roboto, sans-serif&quot; size=&quot;1&quot;&gt;&lt;span style=&quot;box-sizing: inherit ; cursor: pointer ; font-size: 12px&quot;&gt;1Q9obAQ8HGGrn&lt;/span&gt;&lt;/font&gt;" style="text;whiteSpace=wrap;html=1;fontSize=15;" vertex="1" parent="2">
                    <mxGeometry x="25" y="341.25" width="180" height="30" as="geometry"/>
                </mxCell>
                <mxCell id="18" value="&lt;span style=&quot;font-family: &amp;#34;roboto&amp;#34; , sans-serif ; font-size: 12px&quot;&gt;&lt;b&gt;50BTC&amp;nbsp;&lt;/b&gt;&amp;nbsp;&lt;/span&gt;&lt;font face=&quot;roboto, sans-serif&quot; size=&quot;1&quot;&gt;&lt;span style=&quot;box-sizing: inherit ; cursor: pointer ; font-size: 12px&quot;&gt;1Q9obAQ8HGGrn&lt;/span&gt;&lt;/font&gt;" style="text;whiteSpace=wrap;html=1;fontSize=15;" vertex="1" parent="2">
                    <mxGeometry x="25" y="371.25" width="180" height="30" as="geometry"/>
                </mxCell>
                <mxCell id="19" value="&lt;div class=&quot;v-list-item__title headline mb-1&quot; style=&quot;box-sizing: inherit ; padding: 0px ; margin: 0px 0px 2px ; line-height: 1.2 ; overflow: hidden ; text-overflow: ellipsis ; letter-spacing: normal ; font-family: &amp;#34;roboto&amp;#34; , sans-serif ; font-style: normal ; text-indent: 0px ; text-transform: none ; word-spacing: 0px&quot;&gt;&lt;span style=&quot;font-size: 14px&quot;&gt;&lt;b&gt;Inputs&lt;/b&gt;&lt;/span&gt;&lt;/div&gt;" style="text;whiteSpace=wrap;html=1;fontSize=15;" vertex="1" parent="2">
                    <mxGeometry x="24" y="310" width="145" height="30" as="geometry"/>
                </mxCell>
                <mxCell id="20" value="&lt;div class=&quot;v-list-item__title headline mb-1&quot; style=&quot;box-sizing: inherit ; padding: 0px ; margin: 0px 0px 2px ; line-height: 1.2 ; overflow: hidden ; text-overflow: ellipsis ; letter-spacing: normal ; font-family: &amp;#34;roboto&amp;#34; , sans-serif ; font-style: normal ; text-indent: 0px ; text-transform: none ; word-spacing: 0px&quot;&gt;&lt;span style=&quot;font-size: 14px&quot;&gt;&lt;b&gt;Outputs&lt;/b&gt;&lt;/span&gt;&lt;/div&gt;" style="text;whiteSpace=wrap;html=1;fontSize=15;" vertex="1" parent="2">
                    <mxGeometry x="179" y="310" width="140" height="30" as="geometry"/>
                </mxCell>
            </root>
        </mxGraphModel>
    </diagram>
</mxfile>